<?xml version="1.0" standalone="no"?><svg xmlns="http://www.w3.org/2000/svg" viewBox="0 0 1440 320"><path fill="#0E726A" fill-opacity="1" d="M0,128L34.3,144C68.6,160,137,192,206,208C274.3,224,343,224,411,208C480,192,549,160,617,144C685.7,128,754,128,823,160C891.4,192,960,256,1029,282.7C1097.1,309,1166,299,1234,272C1302.9,245,1371,203,1406,181.3L1440,160L1440,320L1405.7,320C1371.4,320,1303,320,1234,320C1165.7,320,1097,320,1029,320C960,320,891,320,823,320C754.3,320,686,320,617,320C548.6,320,480,320,411,320C342.9,320,274,320,206,320C137.1,320,69,320,34,320L0,320Z"></path></svg>